<svg width="47" height="48" viewBox="0 0 47 48" fill="none" xmlns="http://www.w3.org/2000/svg">
<path d="M0.367188 0.152344H19.2812V47.9297H0.367188V0.152344ZM25.1172 13.1602C25.1172 7.98047 26.4297 4.5 29.0547 2.71875C31.5391 1.05469 36.2148 0.222656 43.082 0.222656H46.6328V6.86719C46.6328 12.1641 45.2852 15.9375 42.5898 18.1875C39.8477 20.4375 35.125 21.5625 28.4219 21.5625H25.1172V13.1602ZM25.1172 25.2188H28.4219C35.0312 25.2188 39.7539 26.5312 42.5898 29.1562C45.2852 31.6641 46.6328 35.625 46.6328 41.0391V48H43.082C36.3555 48 31.6797 46.9922 29.0547 44.9766C26.4297 42.9375 25.1172 39.2812 25.1172 34.0078V25.2188Z" fill="#024375"/>
</svg>
